<?xml version="1.0" encoding="UTF-8" standalone="no"?>
<!DOCTYPE svg PUBLIC "-//W3C//DTD SVG 1.0//EN" "http://www.w3.org/TR/2001/PR-SVG-20010719/DTD/svg10.dtd">
<svg width="17cm" height="10cm" viewBox="51 26 321 193" xmlns="http://www.w3.org/2000/svg" xmlns:xlink="http://www.w3.org/1999/xlink">
  <g>
    <rect style="fill: #ffffff" x="60.625" y="111" width="146.75" height="38"/>
    <rect style="fill: none; fill-opacity:0; stroke-width: 2; stroke: #000000" x="60.625" y="111" width="146.75" height="38"/>
    <text style="fill: #000000;text-anchor:middle;font-size:12.8;font-family:sanserif;font-style:normal;font-weight:normal" x="134" y="133.9">
      <tspan x="134" y="133.9">HelloWorldService2</tspan>
    </text>
  </g>
  <g>
    <rect style="fill: #ffffff" x="85.05" y="34" width="101.9" height="38"/>
    <rect style="fill: none; fill-opacity:0; stroke-width: 2; stroke: #000000" x="85.05" y="34" width="101.9" height="38"/>
    <text style="fill: #000000;text-anchor:middle;font-size:12.8;font-family:sanserif;font-style:normal;font-weight:normal" x="136" y="56.9">
      <tspan x="136" y="56.9">HelloService</tspan>
    </text>
  </g>
  <g>
    <rect style="fill: #ffffff" x="76.05" y="27" width="101.9" height="38"/>
    <rect style="fill: none; fill-opacity:0; stroke-width: 2; stroke: #000000" x="76.05" y="27" width="101.9" height="38"/>
    <text style="fill: #000000;text-anchor:middle;font-size:12.8;font-family:sanserif;font-style:normal;font-weight:normal" x="127" y="49.9">
      <tspan x="127" y="49.9">HelloService</tspan>
    </text>
  </g>
  <g>
    <rect style="fill: #ffffff" x="52.625" y="103" width="146.75" height="38"/>
    <rect style="fill: none; fill-opacity:0; stroke-width: 2; stroke: #000000" x="52.625" y="103" width="146.75" height="38"/>
    <text style="fill: #000000;text-anchor:middle;font-size:12.8;font-family:sanserif;font-style:normal;font-weight:normal" x="126" y="125.9">
      <tspan x="126" y="125.9">HelloWorldService2</tspan>
    </text>
  </g>
  <g>
    <rect style="fill: #ffffff" x="76.325" y="180" width="99.35" height="38"/>
    <rect style="fill: none; fill-opacity:0; stroke-width: 2; stroke: #000000" x="76.325" y="180" width="99.35" height="38"/>
    <text style="fill: #000000;text-anchor:middle;font-size:12.8;font-family:sanserif;font-style:normal;font-weight:normal" x="126" y="202.9">
      <tspan x="126" y="202.9">HelloWorld2</tspan>
    </text>
  </g>
  <g>
    <line style="fill: none; fill-opacity:0; stroke-width: 2; stroke: #000000" x1="126" y1="103" x2="126.711" y2="75.9962"/>
    <polygon style="fill: #000000" points="131.709,76.1277 126.974,65.9997 121.712,75.8647 "/>
    <polygon style="fill: none; fill-opacity:0; stroke-width: 2; stroke: #000000" points="131.709,76.1277 126.974,65.9997 121.712,75.8647 "/>
  </g>
  <g>
    <line style="fill: none; fill-opacity:0; stroke-width: 2; stroke: #000000" x1="126" y1="180" x2="126" y2="152"/>
    <polygon style="fill: #000000" points="131,152 126,142 121,152 "/>
    <polygon style="fill: none; fill-opacity:0; stroke-width: 2; stroke: #000000" points="131,152 126,142 121,152 "/>
  </g>
  <g>
    <rect style="fill: #ffffff" x="247.276" y="102" width="123.45" height="38"/>
    <rect style="fill: none; fill-opacity:0; stroke-width: 2; stroke: #000000" x="247.276" y="102" width="123.45" height="38"/>
    <text style="fill: #000000;text-anchor:middle;font-size:12.8;font-family:sanserif;font-style:normal;font-weight:normal" x="309.001" y="124.9">
      <tspan x="309.001" y="124.9">LookupService2</tspan>
    </text>
  </g>
  <g>
    <line style="fill: none; fill-opacity:0; stroke-width: 2; stroke: #000000" x1="175.675" y1="199" x2="268.605" y2="145.489"/>
    <polygon style="fill: #000000" points="271.1,149.822 277.271,140.499 266.11,141.156 "/>
    <polygon style="fill: none; fill-opacity:0; stroke-width: 2; stroke: #000000" points="271.1,149.822 277.271,140.499 266.11,141.156 "/>
  </g>
  <g>
    <line style="fill: none; fill-opacity:0; stroke-width: 2; stroke: #000000" x1="199.375" y1="122" x2="236.278" y2="121.23"/>
    <polygon style="fill: #000000" points="236.383,126.229 246.276,121.021 236.174,116.231 "/>
    <polygon style="fill: none; fill-opacity:0; stroke-width: 2; stroke: #000000" points="236.383,126.229 246.276,121.021 236.174,116.231 "/>
  </g>
</svg>
